{
  "asset": {
    "version": "2.0",
    "generator": "THREE.GLTFExporter"
  },
  "scenes": [
    {
      "nodes": [
        0,
        1,
        4
      ],
      "name": "Scene"
    }
  ],
  "scene": 0,
  "nodes": [
    {
      "matrix": [
        1,
        0,
        0,
        0,
        0,
        1,
        0,
        0,
        0,
        0,
        1,
        0,
        5,
        10,
        7.5,
        1
      ],
      "name": "DirectionalLight",
      "extensions": {
        "KHR_lights_punctual": {
          "light": 0
        }
      }
    },
    {
      "name": "BunnyLoli01.obj"
    },
    {
      "name": "25_body1nPart!_1_0_0_head_head j",
      "mesh": 0
    },
    {
      "name": "25_body!_1_0_0",
      "mesh": 1
    },
    {
      "name": "BunnyLoli01.obj",
      "children": [
        2,
        3
      ]
    }
  ],
  "extensions": {
    "KHR_lights_punctual": {
      "lights": [
        {
          "name": "DirectionalLight",
          "color": [
            1,
            1,
            1
          ],
          "intensity": 1,
          "type": "directional"
        }
      ]
    }
  },
  "bufferViews": [
    {
      "buffer": 0,
      "byteOffset": 0,
      "byteLength": 160380,
      "target": 34962,
      "byteStride": 12
    },
    {
      "buffer": 0,
      "byteOffset": 160380,
      "byteLength": 160380,
      "target": 34962,
      "byteStride": 12
    },
    {
      "buffer": 0,
      "byteOffset": 320760,
      "byteLength": 106920,
      "target": 34962,
      "byteStride": 8
    },
    {
      "buffer": 0,
      "byteOffset": 427680,
      "byteLength": 52380,
      "target": 34962,
      "byteStride": 12
    },
    {
      "buffer": 0,
      "byteOffset": 480060,
      "byteLength": 52380,
      "target": 34962,
      "byteStride": 12
    },
    {
      "buffer": 0,
      "byteOffset": 532440,
      "byteLength": 34920,
      "target": 34962,
      "byteStride": 8
    }
  ],
  "buffers": [
    {
      "byteLength": 567360,
      "uri": "data:application/octet-stream;base64,"
    }
  ],
  "accessors": [
    {
      "bufferView": 0,
      "componentType": 5126,
      "count": 13365,
      "max": [
        0.41152599453926086,
        0.15641899406909943,
        1.396710991859436
      ],
      "min": [
        -0.41274699568748474,
        -0.5372030138969421,
        0.24394799768924713
      ],
      "type": "VEC3"
    },
    {
      "bufferView": 1,
      "componentType": 5126,
      "count": 13365,
      "max": [
        1,
        0.9997373819351196,
        0.9979403614997864
      ],
      "min": [
        -0.9997389912605286,
        -0.9993298649787903,
        -0.996777355670929
      ],
      "type": "VEC3"
    },
    {
      "bufferView": 2,
      "componentType": 5126,
      "count": 13365,
      "max": [
        0.49885499477386475,
        0.9965140223503113
      ],
      "min": [
        0.0015689999563619494,
        0.002850000048056245
      ],
      "type": "VEC2"
    },
    {
      "bufferView": 3,
      "componentType": 5126,
      "count": 4365,
      "max": [
        0.3221319913864136,
        0.0642009973526001,
        0.8645420074462891
      ],
      "min": [
        -0.135111004114151,
        -0.09230499714612961,
        0.0023320000618696213
      ],
      "type": "VEC3"
    },
    {
      "bufferView": 4,
      "componentType": 5126,
      "count": 4365,
      "max": [
        0.997694730758667,
        0.9997373819351196,
        0.9787061810493469
      ],
      "min": [
        -0.9982166290283203,
        -0.9992751479148865,
        -1
      ],
      "type": "VEC3"
    },
    {
      "bufferView": 5,
      "componentType": 5126,
      "count": 4365,
      "max": [
        0.44611799716949463,
        0.9938110113143921
      ],
      "min": [
        0.0756630003452301,
        0.00636899983510375
      ],
      "type": "VEC2"
    }
  ],
  "materials": [
    {
      "pbrMetallicRoughness": {
        "metallicFactor": 0.5,
        "roughnessFactor": 0.5
      },
      "name": "Material_1"
    },
    {
      "pbrMetallicRoughness": {
        "metallicFactor": 0.5,
        "roughnessFactor": 0.5
      },
      "name": "Material_2"
    }
  ],
  "meshes": [
    {
      "primitives": [
        {
          "mode": 4,
          "attributes": {
            "POSITION": 0,
            "NORMAL": 1,
            "TEXCOORD_0": 2
          },
          "material": 0
        }
      ]
    },
    {
      "primitives": [
        {
          "mode": 4,
          "attributes": {
            "POSITION": 3,
            "NORMAL": 4,
            "TEXCOORD_0": 5
          },
          "material": 1
        }
      ]
    }
  ],
  "extensionsUsed": [
    "KHR_lights_punctual"
  ]
}